<?xml version="1.0" encoding="utf-8"?>
<!-- Generator: Adobe Illustrator 27.6.1, SVG Export Plug-In . SVG Version: 6.00 Build 0)  -->
<svg version="1.1" id="Layer_1" xmlns="http://www.w3.org/2000/svg" xmlns:xlink="http://www.w3.org/1999/xlink" x="0px" y="0px"
	 viewBox="0 0 841.9 595.3" style="enable-background:new 0 0 841.9 595.3;" xml:space="preserve">
<style type="text/css">
	.st0{fill:#416CAA;}
</style>
<g>
	<g>
		<path class="st0" d="M46.7,335.7c3.7-2.7,4.4-6.8,4.4-14.5v-46.8c0-7.9-0.7-11.7-4.4-14.5v-0.4h29.8c18.3,0,30.7,5.1,30.7,17.8
			c0,9.9-8.3,15.7-22.2,16.9v0.6c15.2,1.1,25.9,7.5,25.9,19.7c0,15-13.2,21.5-34,21.5H46.7V335.7z M75,291.7
			c10.1,0,16.6-4.2,16.6-13.2c0-9.1-6.6-12.3-16.6-12.3h-8.3v25.6H75z M75.8,329.6c11.1,0,18.5-4,18.5-15.6c0-10.9-7.1-16.1-19-16.1
			h-8.6v31.7H75.8z"/>
		<path class="st0" d="M126.3,335.7c3.7-2.7,4.4-6.8,4.4-14.5v-46.8c0-7.9-0.7-11.7-4.4-14.5v-0.4h31.6c18.6,0,30.1,5.7,30.1,19.4
			c0,12.4-10.1,18.6-24.5,19.5c6.2,1.4,11.3,5.3,16.7,15c6.8,11.6,11.1,15.6,19.8,15.6v7.1c-19.7,0-26.2-3.9-34-17.8
			c-6.1-11.7-9.7-17.5-17.7-17.5h-1.7v20.4c0,7.7,0.7,11.7,4.7,14.5v0.4h-25V335.7z M153.5,293.9c11,0,18.5-4,18.5-14.2
			c0-9.4-6.2-13.6-16.6-13.6h-8.8v27.7H153.5z"/>
		<path class="st0" d="M262.3,335.7c3.7-2.7,4.4-6.8,4.4-14.5v-46.8c0-7.9-0.7-11.7-4.4-14.5v-0.4h24.9v0.4
			c-3.7,2.7-4.4,6.6-4.4,14.5v21.1l24.6-25.7c3.7-3.9,6.3-7.5,8.2-10.3h16.3v1.1c-5.1,1.7-8.5,3.7-11.9,7.2l-21.9,21.8l35.7,45.6
			v0.8h-18.8l-26.5-36.8l-5.6,5.5v16.5c0,7.7,0.7,11.7,4.4,14.5v0.4h-24.9V335.7z"/>
		<path class="st0" d="M348.5,323.8L370,267c1-2.8,1.3-5.3,0.5-7.4h16.2l24.5,64.7c2,5.5,4.2,9.1,7.8,11.4v0.4h-27.7v-0.4
			c4.2-2.2,4.4-5.7,2.6-11.2l-3.5-10.6h-28.8l-3.6,10.3c-2.3,6.2-1.9,9.4,1.8,11.6v0.3h-20.1v-0.3
			C343.2,333.5,346.2,330.2,348.5,323.8z M388.2,307.3L376.4,272l-12.5,35.3H388.2z"/>
		<path class="st0" d="M431.4,335.7c3.7-2.7,4.4-6.8,4.4-14.5v-46.8c0-7.9-0.7-11.7-4.4-14.5v-0.4H463c18.6,0,30.1,5.7,30.1,19.4
			c0,12.4-10.1,18.6-24.5,19.5c6.2,1.4,11.3,5.3,16.7,15c6.8,11.6,11.1,15.6,19.8,15.6v7.1c-19.7,0-26.2-3.9-34-17.8
			c-6.1-11.7-9.7-17.5-17.7-17.5h-1.7v20.4c0,7.7,0.7,11.7,4.7,14.5v0.4h-25V335.7z M458.6,293.9c11,0,18.5-4,18.5-14.2
			c0-9.4-6.2-13.6-16.6-13.6h-8.8v27.7H458.6z"/>
		<path class="st0" d="M516,335.7c3.7-2.7,4.4-6.8,4.4-14.5v-46.8c0-7.9-0.7-11.7-4.4-14.5v-0.4h24.9v0.4c-3.7,2.7-4.4,6.6-4.4,14.5
			V329h8.6c8,0,15.4-1.5,25.9-5.7v12.8H516V335.7z"/>
		<path class="st0" d="M579,311.4h14.8c1.3,11.5,7.1,19.8,18.5,19.9c7.8,0,12.8-3.9,12.9-10.8c0-7.5-6.3-11.1-19.7-18
			c-13.2-6.7-22.3-12.7-22.3-24.1c0-12.8,11.2-20.1,26.2-20.1c16,0,28.1,7.9,30.9,22.8h-14.7c-1-9.2-6.4-16.1-16.2-16.2
			c-7.6-0.1-11.8,3.7-11.9,9.5c0,7.4,6.9,11.1,18.9,17.1c13.9,7,23.3,12.9,23.3,25.2c0,13.3-11.4,21.2-27.5,21.2
			C594,337.9,581,328.5,579,311.4z"/>
		<path class="st0" d="M655.9,335.7c3.7-2.7,4.4-6.8,4.4-14.5v-46.8c0-7.9-0.7-11.7-4.4-14.5v-0.4h53.2v12.1
			c-11.3-3.6-17.6-5.3-24.2-5.3h-8.6v26.7h5.4c5.9,0,13.5-0.3,22-0.7v7.7c-8.5-0.4-16.2-0.6-22-0.6h-5.4v29.7h9.4
			c7.7,0,14.9-1.5,25.3-5.6v12.4h-55.1V335.7z"/>
		<path class="st0" d="M739.4,277.8v42.6c0,8.2,0.8,12.5,5.2,15.4v0.4h-18.2v-0.4c3.5-2.8,4.1-7.2,4.1-15.4v-45.9
			c0-7.9-0.5-11.7-3.1-14.5v-0.4h17.3l37.3,58.2v-42.5c0-8.2-0.7-12.5-4.9-15.4v-0.4h18v0.4c-3.4,2.8-4.1,7.2-4.1,15.4v60.8h-14.3
			L739.4,277.8z"/>
	</g>
	
		<rect x="220.1" y="289.4" transform="matrix(0.7071 -0.7071 0.7071 0.7071 -143.6584 248.7659)" class="st0" width="16.8" height="16.8"/>
</g>
</svg>
